<?xml version="1.0" standalone="no"?>
<!DOCTYPE svg PUBLIC "-//W3C//DTD SVG 20010904//EN"
 "http://www.w3.org/TR/2001/REC-SVG-20010904/DTD/svg10.dtd">
<svg version="1.0" xmlns="http://www.w3.org/2000/svg"
 width="198.000000pt" height="156.000000pt" viewBox="0 0 198.000000 156.000000"
 preserveAspectRatio="xMidYMid meet">

<g transform="translate(0.000000,156.000000) scale(0.100000,-0.100000)"
fill="#000000" stroke="none">
<path d="M340 1005 c0 -51 3 -65 15 -65 12 0 15 14 15 65 0 51 -3 65 -15 65
-12 0 -15 -14 -15 -65z"/>
<path d="M480 1060 c0 -5 9 -10 20 -10 18 0 20 -7 20 -55 0 -42 3 -55 15 -55
12 0 15 13 15 55 0 48 2 55 20 55 11 0 20 5 20 10 0 6 -25 10 -55 10 -30 0
-55 -4 -55 -10z"/>
<path d="M835 1060 c-4 -6 5 -10 19 -10 25 0 26 -3 26 -55 0 -30 5 -55 10 -55
6 0 10 25 10 55 0 48 2 55 20 55 11 0 20 5 20 10 0 6 -22 10 -49 10 -28 0 -53
-4 -56 -10z"/>
<path d="M1050 1005 l0 -65 50 0 c28 0 50 5 50 10 0 6 -16 10 -35 10 -24 0
-35 5 -35 15 0 10 10 15 30 15 17 0 30 5 30 10 0 6 -13 10 -30 10 -23 0 -30 4
-30 20 0 16 7 20 36 20 21 0 33 4 29 10 -3 6 -26 10 -51 10 l-44 0 0 -65z"/>
<path d="M1280 1008 c-17 -38 -24 -65 -18 -67 6 -2 15 4 20 13 11 20 64 21 72
1 3 -8 12 -15 20 -15 11 0 11 8 -5 40 -11 22 -24 51 -29 65 -15 39 -29 30 -60
-37z m53 2 c4 -15 0 -20 -15 -20 -14 0 -18 5 -14 16 3 9 6 20 6 25 0 17 17 1
23 -21z"/>
<path d="M1497 1063 c-4 -3 -7 -33 -7 -65 0 -45 3 -58 15 -58 11 0 15 11 15
38 l0 37 21 -35 c23 -36 21 -37 56 17 10 16 12 13 12 -19 1 -21 6 -38 11 -38
6 0 10 28 10 65 0 36 -4 65 -10 65 -5 0 -19 -19 -31 -42 l-21 -42 -19 25 c-10
13 -21 32 -25 42 -6 18 -16 22 -27 10z"/>
<path d="M685 990 c-4 -6 7 -10 24 -10 17 0 31 5 31 10 0 6 -11 10 -24 10 -14
0 -28 -4 -31 -10z"/>
<path d="M600 832 c0 -5 -15 -35 -32 -66 -101 -179 -234 -442 -267 -526 -5
-14 -16 -41 -25 -62 -14 -33 -14 -37 2 -50 15 -12 16 -11 4 4 -11 14 -10 17 8
20 26 4 24 1 150 261 55 114 103 207 106 207 4 0 3 -8 -1 -17 -15 -37 -13 -69
6 -100 39 -63 73 -46 248 126 67 67 125 120 128 118 2 -3 -9 -37 -26 -75 -16
-39 -27 -73 -24 -76 4 -3 1 -6 -6 -6 -7 0 -11 -6 -8 -14 3 -7 -5 -35 -18 -62
-14 -27 -25 -56 -25 -65 0 -8 -4 -19 -9 -25 -14 -16 -51 -136 -51 -168 0 -37
34 -96 55 -96 17 0 20 11 5 26 -16 16 -14 73 2 129 9 28 46 127 83 220 81 203
99 263 83 282 -20 25 -46 13 -119 -55 -126 -116 -260 -232 -270 -232 -13 0
-13 -1 26 154 19 76 32 143 29 147 -7 11 -54 12 -54 1z m260 -107 c-24 -25
-46 -45 -49 -45 -5 0 58 70 74 82 26 20 15 4 -25 -37z"/>
<path d="M1064 519 c-10 -17 23 -46 38 -31 8 8 8 15 -2 27 -15 18 -26 19 -36
4z"/>
<path d="M1343 445 c-23 -19 -50 -35 -60 -35 -10 0 -50 -19 -88 -41 -96 -57
-166 -89 -193 -89 -20 0 -22 4 -16 22 4 12 22 46 42 75 21 32 32 59 28 69 -10
25 -28 12 -70 -49 -30 -43 -39 -65 -38 -93 2 -45 26 -74 61 -74 28 0 135 48
181 80 31 22 51 27 32 8 -16 -16 -15 -60 1 -82 19 -26 61 -23 107 8 46 30 52
32 44 11 -4 -8 1 -27 11 -41 15 -24 22 -26 66 -22 35 4 66 16 106 43 80 53
182 152 180 176 -2 30 -17 23 -96 -46 -41 -36 -78 -65 -82 -65 -5 0 -24 -11
-44 -24 -35 -24 -92 -43 -101 -33 -3 3 8 32 25 66 32 62 38 91 21 91 -6 0 -8
11 -4 25 15 62 -51 73 -113 20z m57 -20 c-15 -18 -3 -38 19 -31 9 3 -4 -13
-29 -35 -45 -41 -140 -96 -140 -82 0 14 69 97 108 130 38 33 64 45 42 18z
m284 -66 c-12 -20 -126 -99 -143 -99 -9 0 -1 8 17 17 18 8 52 33 75 54 41 37
65 50 51 28z"/>
<path d="M309 403 c-13 -16 -12 -17 4 -4 16 13 21 21 13 21 -2 0 -10 -8 -17
-17z"/>
<path d="M1102 218 c-17 -17 -15 -33 3 -18 8 6 20 8 27 4 10 -6 9 -3 -1 9 -16
20 -14 20 -29 5z"/>
<path d="M1055 187 c-10 -8 -15 -19 -11 -25 3 -5 1 -13 -4 -15 -6 -3 -5 -4 2
-2 7 1 12 8 10 15 -2 8 3 10 13 7 10 -5 15 0 15 13 0 24 -1 24 -25 7z"/>
<path d="M986 95 c-16 -14 -25 -25 -20 -25 12 1 58 39 52 45 -2 2 -17 -7 -32
-20z"/>
<path d="M320 100 c0 -5 5 -10 11 -10 5 0 7 5 4 10 -3 6 -8 10 -11 10 -2 0 -4
-4 -4 -10z"/>
<path d="M373 70 c25 -20 89 -50 104 -50 4 0 -8 10 -27 23 -19 12 -36 21 -38
19 -1 -1 -10 4 -18 13 -9 8 -22 15 -31 15 -11 0 -8 -6 10 -20z"/>
<path d="M928 53 c7 -3 16 -2 19 1 4 3 -2 6 -13 5 -11 0 -14 -3 -6 -6z"/>
</g>
</svg>
