<?xml version="1.0" encoding="UTF-8"?>
<!DOCTYPE svg PUBLIC "-//W3C//DTD SVG 1.1//EN" "http://www.w3.org/Graphics/SVG/1.1/DTD/svg11.dtd">
<svg xmlns="http://www.w3.org/2000/svg" version="1.1" width="250px" height="250px" style="shape-rendering:geometricPrecision; text-rendering:geometricPrecision; image-rendering:optimizeQuality; fill-rule:evenodd; clip-rule:evenodd" xmlns:xlink="http://www.w3.org/1999/xlink">
<g><path style="opacity:0.994" fill="#ac1835" d="M 80.5,59.5 C 73.5,59.5 66.5,59.5 59.5,59.5C 59.5,80.5 59.5,101.5 59.5,122.5C 59.5,129.5 59.5,136.5 59.5,143.5C 52.8333,143.5 46.1667,143.5 39.5,143.5C 38.3408,108.905 38.1742,74.2381 39,39.5C 52.4371,38.1781 65.9371,38.1781 79.5,39.5C 80.4617,46.1077 80.7951,52.7743 80.5,59.5 Z"/></g>
<g><path style="opacity:1" fill="#dfbbc7" d="M 80.5,59.5 C 87.5,59.5 94.5,59.5 101.5,59.5C 101.5,59.8333 101.5,60.1667 101.5,60.5C 94.5,60.5 87.5,60.5 80.5,60.5C 73.8333,60.5 67.1667,60.5 60.5,60.5C 60.5,80.8333 60.5,101.167 60.5,121.5C 60.5,121.833 60.5,122.167 60.5,122.5C 60.1667,122.5 59.8333,122.5 59.5,122.5C 59.5,101.5 59.5,80.5 59.5,59.5C 66.5,59.5 73.5,59.5 80.5,59.5 Z"/></g>
<g><path style="opacity:1" fill="#f9fbfd" d="M 80.5,60.5 C 80.5,67.1667 80.5,73.8333 80.5,80.5C 87.5,80.5 94.5,80.5 101.5,80.5C 108.313,81.4912 115.313,81.8245 122.5,81.5C 122.5,88.1667 122.5,94.8333 122.5,101.5C 129.167,101.5 135.833,101.5 142.5,101.5C 142.833,101.5 143.167,101.5 143.5,101.5C 149.979,102.491 156.646,102.824 163.5,102.5C 163.5,108.833 163.5,115.167 163.5,121.5C 129.167,121.5 94.8333,121.5 60.5,121.5C 60.5,101.167 60.5,80.8333 60.5,60.5C 67.1667,60.5 73.8333,60.5 80.5,60.5 Z"/></g>
<g><path style="opacity:1" fill="#b3c2e8" d="M 80.5,60.5 C 87.5,60.5 94.5,60.5 101.5,60.5C 101.5,67.1667 101.5,73.8333 101.5,80.5C 94.5,80.5 87.5,80.5 80.5,80.5C 80.5,73.8333 80.5,67.1667 80.5,60.5 Z"/></g>
<g><path style="opacity:0.964" fill="#ab1835" d="M 101.5,59.5 C 108.5,59.5 115.5,59.5 122.5,59.5C 122.5,66.5 122.5,73.5 122.5,80.5C 115.5,80.5 108.5,80.5 101.5,80.5C 101.5,73.8333 101.5,67.1667 101.5,60.5C 101.5,60.1667 101.5,59.8333 101.5,59.5 Z"/></g>
<g><path style="opacity:0.812" fill="#c089a4" d="M 101.5,80.5 C 108.5,80.5 115.5,80.5 122.5,80.5C 129.5,80.5 136.5,80.5 143.5,80.5C 143.5,87.5 143.5,94.5 143.5,101.5C 143.167,101.5 142.833,101.5 142.5,101.5C 135.833,101.5 129.167,101.5 122.5,101.5C 122.5,94.8333 122.5,88.1667 122.5,81.5C 115.313,81.8245 108.313,81.4912 101.5,80.5 Z"/></g>
<g><path style="opacity:1" fill="#b3c2e8" d="M 122.5,81.5 C 129.167,81.5 135.833,81.5 142.5,81.5C 142.5,88.1667 142.5,94.8333 142.5,101.5C 142.5,94.8333 142.5,88.1667 142.5,81.5C 135.833,81.5 129.167,81.5 122.5,81.5 Z"/></g>
<g><path style="opacity:1" fill="#ac1835" d="M 143.5,80.5 C 150.5,80.5 157.5,80.5 164.5,80.5C 164.5,87.5 164.5,94.5 164.5,101.5C 157.5,101.5 150.5,101.5 143.5,101.5C 143.5,94.5 143.5,87.5 143.5,80.5 Z"/></g>
<g><path style="opacity:1" fill="#a9b5df" d="M 164.5,101.5 C 171.167,101.5 177.833,101.5 184.5,101.5C 184.5,115.5 184.5,129.5 184.5,143.5C 170.833,143.5 157.167,143.5 143.5,143.5C 143.5,150.167 143.5,156.833 143.5,163.5C 129.579,164.482 115.579,164.815 101.5,164.5C 101.5,171.167 101.5,177.833 101.5,184.5C 87.5,184.5 73.5,184.5 59.5,184.5C 59.5,170.833 59.5,157.167 59.5,143.5C 59.5,136.5 59.5,129.5 59.5,122.5C 59.8333,122.5 60.1667,122.5 60.5,122.5C 95.1667,122.5 129.833,122.5 164.5,122.5C 164.5,115.5 164.5,108.5 164.5,101.5 Z"/></g>
<g><path style="opacity:0.927" fill="#aa1736" d="M 185.5,101.5 C 192.167,101.5 198.833,101.5 205.5,101.5C 205.5,108.5 205.5,115.5 205.5,122.5C 198.833,122.5 192.167,122.5 185.5,122.5C 185.5,115.5 185.5,108.5 185.5,101.5 Z"/></g>
<g><path style="opacity:1" fill="#e3e5f2" d="M 143.5,101.5 C 150.5,101.5 157.5,101.5 164.5,101.5C 164.5,108.5 164.5,115.5 164.5,122.5C 129.833,122.5 95.1667,122.5 60.5,122.5C 60.5,122.167 60.5,121.833 60.5,121.5C 94.8333,121.5 129.167,121.5 163.5,121.5C 163.5,115.167 163.5,108.833 163.5,102.5C 156.646,102.824 149.979,102.491 143.5,101.5 Z"/></g>
<g><path style="opacity:0.997" fill="#721542" d="M 184.5,101.5 C 184.833,101.5 185.167,101.5 185.5,101.5C 185.5,108.5 185.5,115.5 185.5,122.5C 192.167,122.5 198.833,122.5 205.5,122.5C 206.812,129.038 206.812,135.705 205.5,142.5C 198.532,143.497 191.532,143.83 184.5,143.5C 184.5,129.5 184.5,115.5 184.5,101.5 Z"/></g>
<g><path style="opacity:0.985" fill="#6e1040" d="M 39.5,143.5 C 46.1667,143.5 52.8333,143.5 59.5,143.5C 59.5,157.167 59.5,170.833 59.5,184.5C 73.5,184.5 87.5,184.5 101.5,184.5C 101.5,184.833 101.5,185.167 101.5,185.5C 101.812,192.422 101.479,199.256 100.5,206C 79.8293,206.467 59.1626,206.3 38.5,205.5C 38.1695,184.66 38.5028,163.993 39.5,143.5 Z"/></g>
<g><path style="opacity:0.98" fill="#6b0f3f" d="M 184.5,143.5 C 184.5,150.167 184.5,156.833 184.5,163.5C 170.833,163.5 157.167,163.5 143.5,163.5C 143.5,156.833 143.5,150.167 143.5,143.5C 157.167,143.5 170.833,143.5 184.5,143.5 Z"/></g>
<g><path style="opacity:0.999" fill="#6f0f3f" d="M 143.5,163.5 C 157.167,163.5 170.833,163.5 184.5,163.5C 171.01,164.496 157.344,164.829 143.5,164.5C 143.812,171.422 143.479,178.256 142.5,185C 128.837,185.5 115.171,185.667 101.5,185.5C 101.5,185.167 101.5,184.833 101.5,184.5C 101.5,177.833 101.5,171.167 101.5,164.5C 115.579,164.815 129.579,164.482 143.5,163.5 Z"/></g>
</svg>
